<svg width="452" height="410" viewBox="0 0 452 410" fill="none" xmlns="http://www.w3.org/2000/svg">
<g filter="url(#filter0_d_43_4)">
<path d="M314.388 150.287C313.533 167.987 310.835 205.203 306.887 212.467C312.02 204.176 316.955 184.042 314.388 150.287Z" fill="white"/>
<path d="M144.033 170.619C144.033 166.513 142.717 148.642 142.059 140.219C144.297 145.418 148.1 158.775 145.415 170.619C142.059 185.424 144.033 197.07 144.033 210.296C138.111 189.174 144.033 175.751 144.033 170.619Z" fill="white"/>
<path d="M217.86 294.387C199.305 293.795 188.053 278.003 181.342 269.91C190.62 278.793 200.095 290.639 217.86 292.611C232.073 294.188 253.787 279.713 262.867 272.279C257.077 279.385 239.967 295.093 217.86 294.387Z" fill="white"/>
<path d="M216.873 211.085C216.215 217.27 208.78 224.903 220.821 236.55C207.004 227.667 215.031 215.56 216.873 211.085Z" fill="white"/>
<path d="M215.294 255.895C216.61 256.816 220.387 258.106 224.967 255.895C220.821 256.487 218.453 256.487 215.294 255.895Z" fill="white"/>
<path d="M231.284 254.71C234.837 255.303 239.772 255.934 246.878 252.934C243.72 255.303 239.18 257.277 231.284 254.71Z" fill="white"/>
<path d="M210.952 254.71C207.925 255.303 200.884 255.5 196.936 251.552C202.069 252.934 202.069 254.71 210.952 254.71Z" fill="white"/>
<path d="M205.227 302.876C204.595 298.77 195.094 285.768 190.422 279.78C196.147 286.623 207.596 300.823 207.596 302.876C207.596 304.929 203.253 314.917 201.082 319.654C202.727 315.772 205.859 306.982 205.227 302.876Z" fill="white"/>
<path d="M95.276 281.359C94.0916 266.357 126.07 199.636 126.07 198.057L127.255 200.031C127.255 200.031 101.001 263.396 99.8162 279.977C98.895 280.241 96.6973 280.885 95.276 281.359Z" fill="white"/>
<path d="M128.439 359.529C136.493 343.895 136.927 262.475 136.137 223.719C138.111 233.194 141.665 345.514 134.163 361.503C128.163 374.294 120.477 391.442 117.385 398.416H111.463C113.766 391.968 120.385 375.163 128.439 359.529Z" fill="white"/>
<path d="M337.505 166.384C337.478 166.154 337.47 165.985 337.484 165.881C337.484 166.019 337.491 166.187 337.505 166.384C338.264 172.664 354.051 224.38 353.67 242.472C353.276 261.225 348.143 271.094 350.907 278.398C343.801 268.726 350.907 251.355 350.907 242.472C350.907 233.795 338.101 174.648 337.505 166.384Z" fill="white"/>
<path d="M146.402 44.4811C158.246 22.5304 188.317 15.5951 201.871 14.8713C184.895 19.8063 165.155 25.9069 149.956 46.6525C134.756 67.398 123.307 119.098 122.517 127.783C121.886 134.732 126.86 141.864 129.426 144.562C129.163 145.615 127.097 144.957 120.938 133.903C113.239 120.085 131.598 71.9195 146.402 44.4811Z" fill="white"/>
<path d="M209.767 22.7673C217.071 29.2815 216.558 46.3762 209.767 54.7459C212.136 46.6525 212.531 30.4659 209.767 22.7673Z" fill="white"/>
<path d="M207.201 61.8522C209.372 79.4206 157.851 118.308 140.678 135.679C152.522 105.28 189.633 90.8697 207.201 61.8522Z" fill="white"/>
<path d="M215.886 65.0105C243.654 68.1689 302.071 87.5534 313.599 139.824C311.23 105.082 289.121 68.3663 215.886 65.0105Z" fill="white"/>
<path d="M120.346 182.265C118.174 167.065 131.795 137.653 133.374 137.258C130.281 148.378 124.096 172.948 124.096 182.265C124.096 191.582 130.281 204.703 133.374 210.098C129.755 205.887 122.083 194.425 120.346 182.265Z" fill="white"/>
<path d="M260.301 10.9234C247.352 8.23874 225.164 12.042 215.689 14.2791C228.389 12.1077 255.09 9.06781 260.301 14.2791C298.597 31.6502 314.586 58.8912 335.313 96.3969C326.43 44.8759 276.488 14.2791 260.301 10.9234Z" fill="white"/>
<path d="M327.614 272.081C336.142 254.71 343.801 153.248 337.681 114.755C337.681 155.222 328.246 258.579 324.456 270.897C319.718 286.294 302.939 295.177 302.939 326.366C302.939 303.863 316.954 293.795 327.614 272.081Z" fill="white"/>
<path d="M260.104 287.676C279.054 264.186 304.716 245.63 304.716 223.521C307.874 259.448 284.976 270.7 266.223 294.387C256.733 306.375 250.431 312.351 243.72 323.8C238.35 332.959 248.852 348.08 245.102 354.594C241.483 347.882 234.995 332.327 237.995 323.8C240.996 315.272 249.719 300.549 260.104 287.676Z" fill="white"/>
<path d="M235.429 369.399C239.13 362.776 281.159 291.426 292.082 264.186C292.28 263.791 294.648 261.225 294.846 261.422C288.646 279.751 240.373 367.82 238.982 373.939C238.192 377.413 235.692 395.192 235.429 398.022C234.705 396.903 231.678 376.11 235.429 369.399Z" fill="white"/>
<path d="M302.545 341.566C302.545 344.527 298.202 398.219 320.113 398.219C312.612 391.31 302.545 390.52 302.545 341.566Z" fill="white"/>
<path d="M171.759 318.254C171.081 294.206 153.925 255.493 144.626 237.734C159.69 258.378 172.476 283.402 171.759 318.254C171.825 320.579 171.736 322.768 171.472 324.787C171.62 322.571 171.715 320.394 171.759 318.254Z" fill="white"/>
<path d="M157.599 397.884C164.202 391.338 167.47 366.452 168.313 353.804C168.313 366.572 169.385 388.626 157.599 397.884C156.988 398.49 156.349 398.938 155.68 399.206C156.355 398.801 156.994 398.359 157.599 397.884Z" fill="white"/>
<path d="M191.014 347.882C194.488 338.249 193.515 300.573 192.593 282.938C192.067 301.099 190.422 339.513 188.053 347.882C185.684 356.252 185.75 384.796 186.079 398.022C186.277 385.322 187.54 357.515 191.014 347.882Z" fill="white"/>
<path d="M284.699 77.1278C279.954 72.7071 267.106 67.4222 260.893 65.2079C270.102 65.2079 274.836 66.8859 284.699 77.1278C285.03 77.4361 285.321 77.7402 285.568 78.0388C285.274 77.7278 284.984 77.4242 284.699 77.1278Z" fill="white"/>
<path d="M324.653 362.293C329.075 343.342 345.841 317.812 353.671 307.416C341.827 318.667 322.087 356.173 321.495 362.293C321.021 367.188 315.639 385.783 313.007 394.468C315.046 391.639 320.231 381.243 324.653 362.293Z" fill="white"/>
<path d="M372.818 397.035C376.042 386.243 385.057 364.622 395.322 364.464C408.152 364.266 379.135 381.44 372.818 397.035Z" fill="white"/>
<path d="M336.694 276.622C334.168 271.884 330.641 270.173 329.193 269.91C333.457 273.068 334.26 278.201 334.128 280.372C347.091 282.478 374.871 287.123 382.293 288.86C391.571 291.032 422.957 308.798 425.721 312.548C427.932 315.549 437.038 371.965 441.315 399.798C439.539 371.899 431.643 315.114 428.09 308.798C424.537 302.481 398.085 290.834 382.293 285.307C366.501 279.78 352.881 279.583 336.694 276.622Z" fill="white"/>
<path d="M65.4689 288.663C67.206 288.189 113.963 275.569 137.125 269.318C114.226 276.161 67.8377 290.045 65.4689 290.834C62.508 291.821 57.3756 290.439 55.9938 290.834C54.612 291.229 52.638 298.928 51.0589 299.717C49.4797 300.507 35.0696 316.496 32.7008 319.852C30.8058 322.536 16.7773 374.268 10 399.798C15.7904 374.268 28.0817 322.221 30.9242 318.273C34.4774 313.338 47.5057 298.335 50.0719 297.348C52.638 296.361 52.2433 290.045 55.4016 288.663C58.56 287.281 63.2976 289.255 65.4689 288.663Z" fill="white"/>
<path d="M377.358 364.859C383.675 348.435 402.362 330.117 410.916 323.01C403.086 332.42 386.004 354.476 380.319 367.425C374.634 380.374 372.686 393.087 372.423 397.824C371.436 393.679 371.042 381.282 377.358 364.859Z" fill="white"/>
<path d="M103.744 395.991C102.852 379.118 80.1861 327.602 68.6272 303.27C85.0842 320.695 103.06 370.973 103.744 395.991C103.771 396.503 103.778 396.983 103.764 397.429C103.764 396.96 103.757 396.48 103.744 395.991Z" fill="white"/>
<path d="M220.032 365.846C227.612 365.688 238.192 357.489 242.535 353.41C237.008 358.674 224.769 369.28 220.032 369.596C215.294 369.912 198.186 353.804 190.225 345.711C197.002 352.488 212.452 366.004 220.032 365.846Z" fill="white"/>
<path d="M72.97 375.716C80.9317 382.69 95.7103 396.877 91.1306 397.824C86.551 398.772 77.1153 383.48 72.97 375.716Z" fill="white"/>
<path d="M101.198 398.219C91.1308 376.242 68.272 330.195 57.3757 321.826C46.4793 313.456 82.0505 369.267 101.198 398.219Z" fill="white"/>
<path d="M101.001 321.628C103.843 341.684 104.949 380.914 105.146 398.022C106.528 398.022 105.146 327.353 105.146 321.628C105.146 315.904 97.4474 296.559 101.001 321.628Z" fill="white"/>
<path d="M212.926 162.92C211.82 154.55 208.122 151.142 206.411 150.484C206.214 150.287 204.24 149.379 197.923 147.326C204.832 149.694 207.596 156.998 212.926 162.92Z" fill="white"/>
<path d="M292.082 151.866C281.502 144.286 258.985 142.72 245.694 141.996C240.759 142.983 235.824 151.866 240.364 150.484C252.208 145.944 272.54 150.681 292.082 151.866Z" fill="white"/>
<path d="M153.311 148.088C164.423 141.311 186.994 141.415 200.303 141.676C205.151 143.025 209.416 152.249 204.99 150.535C193.514 145.131 172.888 148.352 153.311 148.088Z" fill="white"/>
<path d="M238.587 166.276C237.115 168.169 235.464 170.529 234.639 173.777C233.387 178.712 234.399 188.18 238.587 195.886C245.61 208.807 259.117 214.244 271.355 214.441C283.594 214.638 290.7 209.506 298.991 201.215C307.282 192.925 307.874 181.476 306.492 174.369C305.111 167.263 298.45 152.853 274.119 152.853C250.036 152.853 241.351 162.723 238.587 166.276Z" stroke="white" stroke-width="1.97398"/>
<path d="M233.455 172.395C234.403 173.185 234.376 173.909 234.245 174.172L235.429 171.803C235.034 171.343 233.652 170.145 231.284 169.04C228.323 167.658 216.874 167.46 213.123 168.053C210.123 168.526 209.241 169.829 209.175 170.421L209.767 172.988C209.899 172.461 210.399 171.329 211.346 171.014C212.531 170.619 220.822 170.421 222.203 170.421C223.585 170.421 232.271 171.408 233.455 172.395Z" fill="white"/>
<path d="M204.817 161.144C206.289 163.037 207.941 165.397 208.765 168.645C210.017 173.58 209.005 183.047 204.817 190.753C197.794 203.674 186.673 208.322 174.433 208.322C166.339 208.322 156.272 203.782 147.981 195.491C139.691 187.2 138.704 175.751 140.085 168.645C141.467 161.538 144.954 147.72 169.285 147.72C193.368 147.72 202.053 157.59 204.817 161.144Z" stroke="white" stroke-width="1.97398"/>
<path d="M260.771 180.937C260.127 181.022 259.568 181.078 259.146 181.109C259.612 181.063 260.167 181.004 260.771 180.937C262.841 180.664 265.784 180.099 267.832 179.135C270.233 178.005 273.234 175.528 274.829 174.076C275.009 173.909 275.178 173.753 275.333 173.608C275.187 173.747 275.018 173.904 274.829 174.076C273.661 175.157 272.028 176.641 270.656 177.824C270.767 177.866 271.069 178.03 271.385 178.346C271.227 178.188 270.661 178.08 270.398 178.046C270.192 178.221 269.994 178.389 269.806 178.545C270.003 178.545 270.477 178.661 270.792 179.135C270.477 178.819 269.74 178.826 269.411 178.869C269.193 179.046 268.994 179.202 268.819 179.333C269.148 179.465 270.003 179.727 269.806 180.32C269.806 179.925 268.753 179.859 268.226 179.727C267.446 180.117 263.582 180.623 260.771 180.937Z" fill="white"/>
<path d="M264.644 173.777C264.644 177.484 261.639 180.489 257.932 180.489C254.226 180.489 251.221 177.484 251.221 173.777C251.221 170.07 254.226 167.855 257.932 167.855C261.639 167.855 264.644 170.07 264.644 173.777Z" fill="white"/>
<path d="M253.619 170.055C247.46 171.16 245.328 177.359 243.354 180.122C243.749 176.635 248.013 169.344 252.435 168.081C257.962 166.502 277.899 168.081 285.795 173.213C282.645 172.426 279.294 171.777 276.517 171.239C276.978 171.572 278.649 172.424 280.07 173.213C277.544 172.897 275.859 171.56 275.333 170.931C273.69 170.634 272.112 170.382 270.595 170.175C271.516 170.859 274.346 172.274 275.728 172.621C274.148 172.621 270.135 171.038 268.819 169.95C267.803 169.832 266.817 169.735 265.858 169.659C266.647 170.054 267.437 171.042 270.2 172.226C268.463 172.226 265.002 170.417 263.489 169.512C262.748 169.48 262.024 169.461 261.317 169.456C262.107 169.985 264.121 171.279 265.858 172.226C263.963 172.226 260.725 170.396 259.344 169.48C257.289 169.545 255.386 169.738 253.619 170.055Z" fill="white"/>
<path d="M176.831 177.161C178.41 177.951 181.568 178.28 182.95 178.346C180.779 178.663 179.021 178.457 177.62 177.968C177.16 178.094 176.16 178.425 175.844 178.74C176.16 178.267 176.835 177.904 177.134 177.782C176.889 177.679 176.657 177.567 176.436 177.449C176.041 177.55 175.212 177.793 175.054 177.951C175.313 177.549 175.896 177.343 176.155 177.29C175.975 177.183 175.805 177.072 175.642 176.958C175.361 176.983 174.77 177.059 174.66 177.161C174.817 177.003 175.271 176.88 175.478 176.838C174.106 175.813 173.355 174.524 173.08 173.608C173.673 174.463 175.252 176.372 176.831 177.161Z" fill="white"/>
<path d="M193.58 173.185C193.58 176.564 190.841 179.304 187.461 179.304C184.082 179.304 181.342 176.564 181.342 173.185C181.342 169.805 184.082 167.855 187.461 167.855C190.841 167.855 193.58 169.805 193.58 173.185Z" fill="white"/>
<path d="M193.412 169.068C198.94 171.753 200.716 176.24 200.913 178.148C199.334 174.2 195.189 171.832 192.623 170.845C190.559 170.051 188.211 169.389 185.319 168.965C184.464 169.657 181.766 171.239 180.187 171.239C182.753 170.055 183.345 169.463 183.937 168.786C183.305 168.714 182.648 168.653 181.963 168.604C180.976 169.548 177.66 171.042 174.66 171.042C176.436 170.607 180.068 169.492 180.384 168.514C179.387 168.471 178.337 168.452 177.226 168.459C176.107 169.32 172.172 171.437 170.119 171.437C172.686 170.252 173.673 169.642 175.252 168.459C174.23 168.481 172.871 168.525 171.896 168.593C171.238 169.475 168.974 170.845 165.974 170.845C168.54 170.055 169.132 169.858 170.712 168.686C168.78 168.854 166.708 169.111 164 169.463C170.119 166.107 187.885 166.383 193.412 169.068Z" fill="white"/>
</g>
<defs>
<filter id="filter0_d_43_4" x="0" y="0" width="451.315" height="409.798" filterUnits="userSpaceOnUse" color-interpolation-filters="sRGB">
<feFlood flood-opacity="0" result="BackgroundImageFix"/>
<feColorMatrix in="SourceAlpha" type="matrix" values="0 0 0 0 0 0 0 0 0 0 0 0 0 0 0 0 0 0 127 0" result="hardAlpha"/>
<feOffset/>
<feGaussianBlur stdDeviation="5"/>
<feComposite in2="hardAlpha" operator="out"/>
<feColorMatrix type="matrix" values="0 0 0 0 1 0 0 0 0 1 0 0 0 0 1 0 0 0 1 0"/>
<feBlend mode="normal" in2="BackgroundImageFix" result="effect1_dropShadow_43_4"/>
<feBlend mode="normal" in="SourceGraphic" in2="effect1_dropShadow_43_4" result="shape"/>
</filter>
</defs>
</svg>
