<svg width="452" height="410" viewBox="0 0 452 410" fill="none" xmlns="http://www.w3.org/2000/svg">
<g filter="url(#filter0_d_43_4)">
<path d="M314.388 150.287C313.533 167.987 310.835 205.203 306.887 212.467C312.02 204.176 316.955 184.042 314.388 150.287Z" fill="white"/>
<path d="M144.033 170.619C144.033 166.513 142.717 148.642 142.059 140.219C144.297 145.418 148.1 158.775 145.415 170.619C142.059 185.424 144.033 197.07 144.033 210.296C138.111 189.174 144.033 175.751 144.033 170.619Z" fill="white"/>
<path d="M217.86 294.387C199.305 293.795 188.053 278.003 181.342 269.91C190.62 278.793 200.095 290.639 217.86 292.611C232.073 294.188 253.787 279.713 262.867 272.279C257.077 279.385 239.967 295.093 217.86 294.387Z" fill="white"/>
<path d="M216.873 211.085C216.215 217.27 208.78 224.903 220.821 236.55C207.004 227.667 215.031 215.56 216.873 211.085Z" fill="white"/>
<path d="M215.294 255.895C216.61 256.816 220.387 258.106 224.967 255.895C220.821 256.487 218.453 256.487 215.294 255.895Z" fill="white"/>
<path d="M231.284 254.71C234.837 255.303 239.772 255.934 246.878 252.934C243.72 255.303 239.18 257.277 231.284 254.71Z" fill="white"/>
<path d="M210.952 254.71C207.925 255.303 200.884 255.5 196.936 251.552C202.069 252.934 202.069 254.71 210.952 254.71Z" fill="white"/>
<path d="M205.227 302.876C204.595 298.77 195.094 285.768 190.422 279.78C196.147 286.623 207.596 300.823 207.596 302.876C207.596 304.929 203.253 314.917 201.082 319.654C202.727 315.772 205.859 306.982 205.227 302.876Z" fill="white"/>
<path d="M95.276 281.359C94.0916 266.357 126.07 199.636 126.07 198.057L127.255 200.031C127.255 200.031 101.001 263.396 99.8162 279.977C98.895 280.241 96.6973 280.885 95.276 281.359Z" fill="white"/>
<path d="M128.439 359.529C136.493 343.895 136.927 262.475 136.137 223.719C138.111 233.194 141.665 345.514 134.163 361.503C128.163 374.294 120.477 391.442 117.385 398.416H111.463C113.766 391.968 120.385 375.163 128.439 359.529Z" fill="white"/>
<path d="M337.505 166.384C337.478 166.154 337.47 165.985 337.484 165.881C337.484 166.019 337.491 166.187 337.505 166.384C338.264 172.664 354.051 224.38 353.67 242.472C353.276 261.225 348.143 271.094 350.907 278.398C343.801 268.726 350.907 251.355 350.907 242.472C350.907 233.795 338.101 174.648 337.505 166.384Z" fill="white"/>
<path d="M146.402 44.4811C158.246 22.5304 188.317 15.5951 201.871 14.8713C184.895 19.8063 165.155 25.9069 149.956 46.6525C134.756 67.398 123.307 119.098 122.517 127.783C121.886 134.732 126.86 141.864 129.426 144.562C129.163 145.615 127.097 144.957 120.938 133.903C113.239 120.085 131.598 71.9195 146.402 44.4811Z" fill="white"/>
<path d="M209.767 22.7673C217.071 29.2815 216.558 46.3762 209.767 54.7459C212.136 46.6525 212.531 30.4659 209.767 22.7673Z" fill="white"/>
<path d="M207.201 61.8522C209.372 79.4206 157.851 118.308 140.678 135.679C152.522 105.28 189.633 90.8697 207.201 61.8522Z" fill="white"/>
<path d="M215.886 65.0105C243.654 68.1689 302.071 87.5534 313.599 139.824C311.23 105.082 289.121 68.3663 215.886 65.0105Z" fill="white"/>
<path d="M120.346 182.265C118.174 167.065 131.795 137.653 133.374 137.258C130.281 148.378 124.096 172.948 124.096 182.265C124.096 191.582 130.281 204.703 133.374 210.098C129.755 205.887 122.083 194.425 120.346 182.265Z" fill="white"/>
<path d="M260.301 10.9234C247.352 8.23874 225.164 12.042 215.689 14.2791C228.389 12.1077 255.09 9.06781 260.301 14.2791C298.597 31.6502 314.586 58.8912 335.313 96.3969C326.43 44.8759 276.488 14.2791 260.301 10.9234Z" fill="white"/>
<path d="M327.614 272.081C336.142 254.71 343.801 153.248 337.681 114.755C337.681 155.222 328.246 258.579 324.456 270.897C319.718 286.294 302.939 295.177 302.939 326.366C302.939 303.863 316.954 293.795 327.614 272.081Z" fill="white"/>
<path d="M260.104 287.676C279.054 264.186 304.716 245.63 304.716 223.521C307.874 259.448 284.976 270.7 266.223 294.387C256.733 306.375 250.431 312.351 243.72 323.8C238.35 332.959 248.852 348.08 245.102 354.594C241.483 347.882 234.995 332.327 237.995 323.8C240.996 315.272 249.719 300.549 260.104 287.676Z" fill="white"/>
<path d="M235.429 369.399C239.13 362.776 281.159 291.426 292.082 264.186C292.28 263.791 294.648 261.225 294.846 261.422C288.646 279.751 240.373 367.82 238.982 373.939C238.192 377.413 235.692 395.192 235.429 398.022C234.705 396.903 231.678 376.11 235.429 369.399Z" fill="white"/>
<path d="M302.545 341.566C302.545 344.527 298.202 398.219 320.113 398.219C312.612 391.31 302.545 390.52 302.545 341.566Z" fill="white"/>
<path d="M171.759 318.254C171.081 294.206 153.925 255.493 144.626 237.734C159.69 258.378 172.476 283.402 171.759 318.254C171.825 320.579 171.736 322.768 171.472 324.787C171.62 322.571 171.715 320.394 171.759 318.254Z" fill="white"/>
<path d="M157.599 397.884C164.202 391.338 167.47 366.452 168.313 353.804C168.313 366.572 169.385 388.626 157.599 397.884C156.988 398.49 156.349 398.938 155.68 399.206C156.355 398.801 156.994 398.359 157.599 397.884Z" fill="white"/>
<path d="M191.014 347.882C194.488 338.249 193.515 300.573 192.593 282.938C192.067 301.099 190.422 339.513 188.053 347.882C185.684 356.252 185.75 384.796 186.079 398.022C186.277 385.322 187.54 357.515 191.014 347.882Z" fill="white"/>
<path d="M284.699 77.1278C279.954 72.7071 267.106 67.4222 260.893 65.2079C270.102 65.2079 274.836 66.8859 284.699 77.1278C285.03 77.4361 285.321 77.7402 285.568 78.0388C285.274 77.7278 284.984 77.4242 284.699 77.1278Z" fill="white"/>
<path d="M324.653 362.293C329.075 343.342 345.841 317.812 353.671 307.416C341.827 318.667 322.087 356.173 321.495 362.293C321.021 367.188 315.639 385.783 313.007 394.468C315.046 391.639 320.231 381.243 324.653 362.293Z" fill="white"/>
<path d="M372.818 397.035C376.042 386.243 385.057 364.622 395.322 364.464C408.152 364.266 379.135 381.44 372.818 397.035Z" fill="white"/>
<path d="M336.694 276.622C334.168 271.884 330.641 270.173 329.193 269.91C333.457 273.068 334.26 278.201 334.128 280.372C347.091 282.478 374.871 287.123 382.293 288.86C391.571 291.032 422.957 308.798 425.721 312.548C427.932 315.549 437.038 371.965 441.315 399.798C439.539 371.899 431.643 315.114 428.09 308.798C424.537 302.481 398.085 290.834 382.293 285.307C366.501 279.78 352.881 279.583 336.694 276.622Z" fill="white"/>
<path d="M65.4689 288.663C67.206 288.189 113.963 275.569 137.125 269.318C114.226 276.161 67.8377 290.045 65.4689 290.834C62.508 291.821 57.3756 290.439 55.9938 290.834C54.612 291.229 52.638 298.928 51.0589 299.717C49.4797 300.507 35.0696 316.496 32.7008 319.852C30.8058 322.536 16.7773 374.268 10 399.798C15.7904 374.268 28.0817 322.221 30.9242 318.273C34.4774 313.338 47.5057 298.335 50.0719 297.348C52.638 296.361 52.2433 290.045 55.4016 288.663C58.56 287.281 63.2976 289.255 65.4689 288.663Z" fill="white"/>
<path d="M377.358 364.859C383.675 348.435 402.362 330.117 410.916 323.01C403.086 332.42 386.004 354.476 380.319 367.425C374.634 380.374 372.686 393.087 372.423 397.824C371.436 393.679 371.042 381.282 377.358 364.859Z" fill="white"/>
<path d="M103.744 395.991C102.852 379.118 80.1861 327.602 68.6272 303.27C85.0842 320.695 103.06 370.973 103.744 395.991C103.771 396.503 103.778 396.983 103.764 397.429C103.764 396.96 103.757 396.48 103.744 395.991Z" fill="white"/>
<path d="M220.032 365.846C227.612 365.688 238.192 357.489 242.535 353.41C237.008 358.674 224.769 369.28 220.032 369.596C215.294 369.912 198.186 353.804 190.225 345.711C197.002 352.488 212.452 366.004 220.032 365.846Z" fill="white"/>
<path d="M72.97 375.716C80.9317 382.69 95.7103 396.877 91.1306 397.824C86.551 398.772 77.1153 383.48 72.97 375.716Z" fill="white"/>
<path d="M101.198 398.219C91.1308 376.242 68.272 330.195 57.3757 321.826C46.4793 313.456 82.0505 369.267 101.198 398.219Z" fill="white"/>
<path d="M101.001 321.628C103.843 341.684 104.949 380.914 105.146 398.022C106.528 398.022 105.146 327.353 105.146 321.628C105.146 315.904 97.4474 296.559 101.001 321.628Z" fill="white"/>
<path d="M212.926 162.92C211.82 154.55 208.122 151.142 206.411 150.484C206.214 150.287 204.24 149.379 197.923 147.326C204.832 149.694 207.596 156.998 212.926 162.92Z" fill="white"/>
<path d="M292.082 151.866C281.502 144.286 258.985 142.72 245.694 141.996C240.759 142.983 235.824 151.866 240.364 150.484C252.208 145.944 272.54 150.681 292.082 151.866Z" fill="white"/>
<path d="M153.311 148.088C164.423 141.311 186.994 141.415 200.303 141.676C205.151 143.025 209.416 152.249 204.99 150.535C193.514 145.131 172.888 148.352 153.311 148.088Z" fill="white"/>
<path d="M238.587 166.276C237.115 168.169 235.464 170.529 234.639 173.777C233.387 178.712 234.399 188.18 238.587 195.886C245.61 208.807 259.117 214.244 271.355 214.441C283.594 214.638 290.7 209.506 298.991 201.215C307.282 192.925 307.874 181.476 306.492 174.369C305.111 167.263 298.45 152.853 274.119 152.853C250.036 152.853 241.351 162.723 238.587 166.276Z" stroke="white" stroke-width="1.97398"/>
<path d="M233.455 172.395C234.403 173.185 234.376 173.909 234.245 174.172L235.429 171.803C235.034 171.343 233.652 170.145 231.284 169.04C228.323 167.658 216.874 167.46 213.123 168.053C210.123 168.526 209.241 169.829 209.175 170.421L209.767 172.988C209.899 172.461 210.399 171.329 211.346 171.014C212.531 170.619 220.822 170.421 222.203 170.421C223.585 170.421 232.271 171.408 233.455 172.395Z" fill="white"/>
<path d="M204.817 161.144C206.289 163.037 207.941 165.397 208.765 168.645C210.017 173.58 209.005 183.047 204.817 190.753C197.794 203.674 186.673 208.322 174.433 208.322C166.339 208.322 156.272 203.782 147.981 195.491C139.691 187.2 138.704 175.751 140.085 168.645C141.467 161.538 144.954 147.72 169.285 147.72C193.368 147.72 202.053 157.59 204.817 161.144Z" stroke="white" stroke-width="1.97398"/>
<path d="M251.023 169.632C247.233 170.737 244.18 176.672 243.127 179.502C244.904 179.502 259.314 181.931 267.21 179.502C269.5 178 274.5 175 276.29 170.421C273.132 169.237 255.761 168.25 251.023 169.632Z" fill="#E1F0F1"/>
<path d="M260.347 180.711C259.703 180.796 259.144 180.852 258.722 180.883C259.188 180.837 259.743 180.778 260.347 180.711C262.417 180.438 265.36 179.873 267.407 178.909C269.809 177.779 272.81 175.302 274.405 173.85C274.585 173.684 274.754 173.527 274.909 173.382C274.763 173.521 274.594 173.678 274.405 173.85C273.237 174.931 271.604 176.415 270.232 177.598C270.343 177.641 270.645 177.804 270.961 178.12C270.803 177.962 270.237 177.854 269.974 177.82C269.768 177.995 269.57 178.163 269.381 178.32C269.579 178.319 270.053 178.436 270.368 178.909C270.053 178.594 269.316 178.601 268.987 178.644C268.769 178.82 268.569 178.976 268.394 179.107C268.723 179.239 269.579 179.502 269.381 180.094C269.381 179.699 268.329 179.633 267.802 179.502C267.022 179.891 263.158 180.397 260.347 180.711Z" fill="#00BBFF"/>
<path d="M264.644 173.777C264.644 177.484 261.639 180.489 257.932 180.489C254.226 180.489 251.221 177.484 251.221 173.777C251.221 170.07 254.226 167.855 257.932 167.855C261.639 167.855 264.644 170.07 264.644 173.777Z" fill="#1A4D7D"/>
<path d="M253.195 169.829C247.036 170.934 244.904 177.133 242.93 179.896C243.325 176.409 247.589 169.118 252.011 167.855C257.538 166.276 277.475 167.855 285.371 172.987C282.221 172.2 278.87 171.551 276.093 171.013C276.554 171.347 278.225 172.198 279.646 172.987C277.12 172.672 275.435 171.334 274.909 170.705C273.266 170.408 271.688 170.156 270.171 169.949C271.092 170.633 273.922 172.049 275.304 172.395C273.724 172.395 269.711 170.812 268.395 169.724C267.379 169.606 266.393 169.509 265.434 169.433C266.223 169.828 267.013 170.816 269.776 172C268.039 172 264.578 170.191 263.065 169.287C262.324 169.254 261.6 169.235 260.893 169.231C261.683 169.759 263.696 171.053 265.434 172C263.539 172 260.301 170.17 258.919 169.254C256.865 169.319 254.962 169.512 253.195 169.829Z" fill="#00BBFF"/>
<g filter="url(#filter1_f_43_4)">
<circle cx="255.958" cy="171.803" r="1.97398" fill="#FFE6BD"/>
</g>
<g filter="url(#filter2_d_43_4)">
<circle cx="255.958" cy="171.803" r="1.57919" fill="white"/>
</g>
<path d="M193.898 170.539C197.53 172.119 199.754 175.935 200.412 177.646C199.82 177.251 185 179.5 177 177.5C173.5 176.5 171 170.934 171 168.171C173.171 167.578 189.358 168.565 193.898 170.539Z" fill="#E1F0F1"/>
<path d="M176.407 176.935C177.986 177.725 181.144 178.054 182.526 178.12C180.355 178.437 178.597 178.231 177.196 177.743C176.736 177.868 175.736 178.199 175.42 178.515C175.736 178.041 176.411 177.678 176.71 177.556C176.465 177.453 176.233 177.342 176.012 177.223C175.617 177.324 174.788 177.567 174.63 177.725C174.889 177.323 175.471 177.117 175.731 177.064C175.551 176.958 175.381 176.847 175.218 176.732C174.937 176.757 174.346 176.833 174.235 176.935C174.393 176.777 174.847 176.654 175.054 176.612C173.681 175.587 172.931 174.298 172.656 173.382C173.248 174.238 174.828 176.146 176.407 176.935Z" fill="#00BBFF"/>
<path d="M193.58 173.185C193.58 176.564 190.841 179.304 187.461 179.304C184.082 179.304 181.342 176.564 181.342 173.185C181.342 169.805 184.082 167.855 187.461 167.855C190.841 167.855 193.58 169.805 193.58 173.185Z" fill="#1A4D7D"/>
<path d="M192.988 168.842C198.515 171.527 200.292 176.014 200.489 177.922C198.91 173.974 194.765 171.606 192.199 170.619C190.135 169.825 187.787 169.163 184.895 168.739C184.04 169.432 181.342 171.014 179.763 171.014C182.329 169.829 182.921 169.237 183.513 168.56C182.881 168.488 182.223 168.427 181.539 168.378C180.552 169.322 177.236 170.816 174.235 170.816C176.012 170.381 179.644 169.266 179.96 168.288C178.963 168.245 177.913 168.226 176.802 168.233C175.683 169.094 171.748 171.211 169.695 171.211C172.261 170.027 173.248 169.417 174.828 168.233C173.806 168.255 172.447 168.3 171.472 168.367C170.814 169.249 168.55 170.619 165.55 170.619C168.116 169.829 168.708 169.632 170.287 168.46C168.356 168.628 166.284 168.885 163.576 169.237C169.695 165.881 187.461 166.158 192.988 168.842Z" fill="#00BBFF"/>
<g filter="url(#filter3_f_43_4)">
<circle cx="186.474" cy="171.408" r="1.97398" fill="#FFE6BD"/>
</g>
<circle cx="186.474" cy="171.408" r="1.57919" fill="white"/>
</g>
<defs>
<filter id="filter0_d_43_4" x="0" y="0" width="451.315" height="409.798" filterUnits="userSpaceOnUse" color-interpolation-filters="sRGB">
<feFlood flood-opacity="0" result="BackgroundImageFix"/>
<feColorMatrix in="SourceAlpha" type="matrix" values="0 0 0 0 0 0 0 0 0 0 0 0 0 0 0 0 0 0 127 0" result="hardAlpha"/>
<feOffset/>
<feGaussianBlur stdDeviation="5"/>
<feComposite in2="hardAlpha" operator="out"/>
<feColorMatrix type="matrix" values="0 0 0 0 1 0 0 0 0 1 0 0 0 0 1 0 0 0 1 0"/>
<feBlend mode="normal" in2="BackgroundImageFix" result="effect1_dropShadow_43_4"/>
<feBlend mode="normal" in="SourceGraphic" in2="effect1_dropShadow_43_4" result="shape"/>
</filter>
<filter id="filter1_f_43_4" x="253.59" y="169.434" width="4.73759" height="4.73759" filterUnits="userSpaceOnUse" color-interpolation-filters="sRGB">
<feFlood flood-opacity="0" result="BackgroundImageFix"/>
<feBlend mode="normal" in="SourceGraphic" in2="BackgroundImageFix" result="shape"/>
<feGaussianBlur stdDeviation="0.197398" result="effect1_foregroundBlur_43_4"/>
</filter>
<filter id="filter2_d_43_4" x="252.8" y="170.224" width="6.31682" height="6.3167" filterUnits="userSpaceOnUse" color-interpolation-filters="sRGB">
<feFlood flood-opacity="0" result="BackgroundImageFix"/>
<feColorMatrix in="SourceAlpha" type="matrix" values="0 0 0 0 0 0 0 0 0 0 0 0 0 0 0 0 0 0 127 0" result="hardAlpha"/>
<feOffset dy="1.57919"/>
<feGaussianBlur stdDeviation="0.789593"/>
<feComposite in2="hardAlpha" operator="out"/>
<feColorMatrix type="matrix" values="0 0 0 0 0 0 0 0 0 0 0 0 0 0 0 0 0 0 0.25 0"/>
<feBlend mode="normal" in2="BackgroundImageFix" result="effect1_dropShadow_43_4"/>
<feBlend mode="normal" in="SourceGraphic" in2="effect1_dropShadow_43_4" result="shape"/>
</filter>
<filter id="filter3_f_43_4" x="184.105" y="169.04" width="4.73759" height="4.73759" filterUnits="userSpaceOnUse" color-interpolation-filters="sRGB">
<feFlood flood-opacity="0" result="BackgroundImageFix"/>
<feBlend mode="normal" in="SourceGraphic" in2="BackgroundImageFix" result="shape"/>
<feGaussianBlur stdDeviation="0.197398" result="effect1_foregroundBlur_43_4"/>
</filter>
</defs>
</svg>
