<svg width="207" height="58" viewBox="0 0 207 58" fill="none" xmlns="http://www.w3.org/2000/svg">
<path d="M25.7381 41.5557V55.2197H24.1541V47.9877H20.6341V46.4997H24.1541V41.5557H25.7381ZM18.5861 41.9557C18.5861 43.769 18.4528 45.465 18.1861 47.0437L22.4581 53.5717L21.1301 54.4357L17.7221 49.0597C17.2528 50.6917 16.6128 51.9717 15.8021 52.8997C14.9915 53.817 14.0528 54.3183 12.9861 54.4037V52.7877C13.8395 52.649 14.5595 52.0837 15.1461 51.0917C15.7435 50.0997 16.1915 48.809 16.4901 47.2197C16.7995 45.6197 16.9595 43.8437 16.9701 41.8917L18.5861 41.9557ZM35.0808 46.4837C33.2888 46.4837 31.8381 46.2863 30.7288 45.8917C29.6301 45.4863 29.0808 44.8517 29.0808 43.9877C29.0808 43.1343 29.6301 42.5103 30.7288 42.1157C31.8381 41.7103 33.2888 41.5077 35.0808 41.5077C36.8728 41.5077 38.3181 41.7103 39.4168 42.1157C40.5261 42.5103 41.0808 43.1343 41.0808 43.9877C41.0808 44.8517 40.5261 45.4863 39.4168 45.8917C38.3181 46.2863 36.8728 46.4837 35.0808 46.4837ZM35.0808 42.7077C33.8008 42.7077 32.7501 42.8143 31.9288 43.0277C31.1181 43.241 30.7128 43.561 30.7128 43.9877C30.7128 44.4143 31.1181 44.7343 31.9288 44.9477C32.7394 45.161 33.7901 45.2677 35.0808 45.2677C36.3714 45.2677 37.4221 45.161 38.2328 44.9477C39.0434 44.7343 39.4488 44.4143 39.4488 43.9877C39.4488 43.561 39.0381 43.241 38.2168 43.0277C37.4061 42.8143 36.3608 42.7077 35.0808 42.7077ZM35.8648 48.4197V49.6517H40.9688V52.9157H30.7608V53.8757H41.2088V55.0597H29.2088V51.7957H39.4168V50.8357H29.1768V49.6517H34.2968V48.4197H28.2648V47.1877H41.9128V48.4197H35.8648Z" fill="#192547"/>
<path d="M10.6583 3.12C12.0983 3.12 13.4023 3.392 14.5703 3.936C15.7383 4.48 16.6663 5.24 17.3543 6.216C18.0583 7.176 18.4423 8.272 18.5063 9.504H13.9943C13.8663 8.64 13.4903 7.968 12.8663 7.488C12.2423 7.008 11.4103 6.768 10.3703 6.768C9.37827 6.768 8.60227 6.952 8.04227 7.32C7.48227 7.672 7.20227 8.152 7.20227 8.76C7.20227 9.24 7.37827 9.632 7.73027 9.936C8.08227 10.24 8.61827 10.512 9.33827 10.752C10.0743 10.976 11.1383 11.232 12.5303 11.52C14.6903 11.968 16.2343 12.712 17.1623 13.752C18.1063 14.776 18.5783 16.064 18.5783 17.616C18.5783 18.832 18.2263 19.896 17.5223 20.808C16.8343 21.72 15.8903 22.416 14.6903 22.896C13.4903 23.392 12.1543 23.64 10.6823 23.64C9.08227 23.64 7.64227 23.36 6.36227 22.8C5.09827 22.256 4.09027 21.472 3.33827 20.448C2.60227 19.424 2.20227 18.224 2.13827 16.848H6.62627C6.75427 17.792 7.20227 18.552 7.97027 19.128C8.75427 19.688 9.76227 19.968 10.9943 19.968C11.8903 19.968 12.6263 19.768 13.2023 19.368C13.7943 18.968 14.0903 18.448 14.0903 17.808C14.0903 17.296 13.9303 16.872 13.6103 16.536C13.3063 16.2 12.8103 15.912 12.1223 15.672C11.4503 15.432 10.5063 15.2 9.29027 14.976C7.09827 14.56 5.45827 13.864 4.37027 12.888C3.28227 11.912 2.73827 10.536 2.73827 8.76C2.73827 7.608 3.08227 6.608 3.77027 5.76C4.47427 4.912 5.42627 4.264 6.62627 3.816C7.82627 3.352 9.17027 3.12 10.6583 3.12ZM21.144 3.6H35.688V7.392H25.512V11.376H34.848V15.168H25.512V19.368H35.904V23.16H21.144V3.6ZM43.2073 3.6V19.296H52.9753V23.16H38.8393V3.6H43.2073Z" fill="#192547"/>
<path d="M180.743 7.464H174.383V23.16H170.015V7.464H163.655V3.6H180.743V7.464ZM191.893 23.64C189.893 23.64 188.085 23.192 186.469 22.296C184.869 21.416 183.613 20.2 182.701 18.648C181.789 17.08 181.333 15.32 181.333 13.368C181.333 11.416 181.789 9.664 182.701 8.112C183.613 6.544 184.869 5.32 186.469 4.44C188.085 3.544 189.893 3.096 191.893 3.096C193.893 3.096 195.693 3.544 197.293 4.44C198.909 5.32 200.173 6.544 201.085 8.112C201.997 9.664 202.453 11.416 202.453 13.368C202.453 15.32 201.997 17.08 201.085 18.648C200.173 20.2 198.909 21.416 197.293 22.296C195.693 23.192 193.893 23.64 191.893 23.64ZM191.893 19.704C193.061 19.704 194.117 19.432 195.061 18.888C196.005 18.344 196.741 17.592 197.269 16.632C197.813 15.656 198.085 14.568 198.085 13.368C198.085 12.152 197.813 11.064 197.269 10.104C196.741 9.144 196.005 8.392 195.061 7.848C194.117 7.304 193.061 7.032 191.893 7.032C190.725 7.032 189.669 7.304 188.725 7.848C187.781 8.392 187.037 9.144 186.493 10.104C185.965 11.064 185.701 12.152 185.701 13.368C185.701 14.568 185.965 15.656 186.493 16.632C187.037 17.592 187.781 18.344 188.725 18.888C189.669 19.432 190.725 19.704 191.893 19.704Z" fill="#192547"/>
<path d="M174.618 53.0917V54.5637H160.97V53.0917H166.97V49.7797H161.866V42.0517H173.722V43.5237H163.482V48.3077H173.882V49.7797H168.586V53.0917H174.618ZM181.032 46.9797C180.552 47.7157 179.923 48.313 179.144 48.7717C178.376 49.2303 177.512 49.513 176.552 49.6197V48.2277C177.619 48.0677 178.483 47.641 179.144 46.9477C179.806 46.2543 180.195 45.369 180.312 44.2917H176.696V42.9477H180.312V41.3157H181.912V42.9477H185.48V44.2917H181.928C181.875 44.8037 181.774 45.273 181.624 45.6997L185.736 48.3077L184.968 49.5077L181.032 46.9797ZM190.648 46.3077H188.728V49.9397H187.144V41.5557H188.728V44.7877H190.648V46.3077ZM177.176 50.6917H188.728V55.2197H187.128V52.0517H177.176V50.6917ZM204.503 41.5557V55.2197H202.919V41.5557H204.503ZM197.591 43.5077C197.58 45.0223 197.436 46.4623 197.159 47.8277L201.623 53.3477L200.375 54.2917L196.695 49.6037C196.226 51.033 195.591 52.1637 194.791 52.9957C194.002 53.817 193.09 54.2863 192.055 54.4037V52.8357C192.855 52.6863 193.543 52.1957 194.119 51.3637C194.706 50.5317 195.159 49.4383 195.479 48.0837C195.799 46.729 195.97 45.2037 195.991 43.5077H192.375V42.0517H201.095V43.5077H197.591Z" fill="#192547"/>
<path d="M114.068 9L121.235 15.9985L114.068 22.997" stroke="#192547" stroke-width="2" stroke-linecap="round" stroke-linejoin="round"/>
<path d="M88.9854 26.4963V22.9971C88.9854 21.1409 89.7404 19.3608 91.0844 18.0484C92.4284 16.7359 94.2513 15.9985 96.152 15.9985H121.235" stroke="#192547" stroke-width="2" stroke-linecap="round" stroke-linejoin="round"/>
<path d="M96.152 47.4918L88.9854 40.4933L96.152 33.4948" stroke="#192547" stroke-width="2" stroke-linecap="round" stroke-linejoin="round"/>
<path d="M121.235 29.9956V33.4949C121.235 35.351 120.48 37.1311 119.136 38.4436C117.792 39.756 115.969 40.4934 114.069 40.4934H88.9854" stroke="#192547" stroke-width="2" stroke-linecap="round" stroke-linejoin="round"/>
</svg>
