<svg width="360" height="430" viewBox="0 0 360 430" fill="none" xmlns="http://www.w3.org/2000/svg">
<g clip-path="url(#clip0_73_200)">
<rect width="360" height="430" fill="white"/>
<circle cx="24" cy="25" r="50" fill="#83E2C3"/>
<circle cx="348.5" cy="244.5" r="29.5" fill="#83E2C3"/>
<path d="M174.821 290.039C167.856 290.039 161.626 277.838 157.086 271.737C159.025 273.676 164.747 277.753 172.125 278.547C181.347 279.541 189.008 275.71 191.988 274.433C194.371 273.411 202.061 267.481 205.608 264.643C210.29 260.624 229.869 242.511 236.821 229.174C239.233 240.808 212.276 272.021 205.608 278.547C198.064 285.931 186.88 290.039 174.821 290.039Z" fill="#B9FFD4"/>
<path d="M243.773 175.829C243.158 188.55 241.219 215.299 238.382 220.52C242.071 214.561 245.618 200.09 243.773 175.829Z" fill="#00A9AA"/>
<path d="M121.333 190.442C121.333 187.491 120.387 174.646 119.914 168.593C121.522 172.329 124.256 181.929 122.326 190.442C119.914 201.083 121.333 209.454 121.333 218.959C117.077 203.778 121.333 194.131 121.333 190.442Z" fill="#00A9AA"/>
<path d="M174.396 279.399C161.059 278.973 152.972 267.623 148.148 261.806C154.817 268.191 161.627 276.705 174.396 278.122C184.611 279.256 200.217 268.852 206.744 263.509C202.582 268.616 190.284 279.906 174.396 279.399Z" fill="#00A9AA"/>
<path d="M173.686 219.527C173.213 223.972 167.869 229.458 176.524 237.829C166.592 231.444 172.362 222.743 173.686 219.527Z" fill="#006F94"/>
<path d="M172.551 251.733C173.497 252.395 176.211 253.322 179.503 251.733C176.524 252.158 174.821 252.158 172.551 251.733Z" fill="#006F94"/>
<path d="M184.043 250.881C186.597 251.307 190.144 251.761 195.251 249.604C192.981 251.307 189.718 252.726 184.043 250.881Z" fill="#006F94"/>
<path d="M169.43 250.881C167.254 251.307 162.194 251.449 159.356 248.611C163.045 249.604 163.045 250.881 169.43 250.881Z" fill="#006F94"/>
<path d="M165.316 285.499C164.862 282.548 158.033 273.203 154.675 268.9C158.789 273.818 167.018 284.024 167.018 285.499C167.018 286.975 163.897 294.154 162.336 297.559C163.518 294.769 165.77 288.451 165.316 285.499Z" fill="#006F94"/>
<path d="M86.2897 270.035C85.4384 259.252 108.422 211.298 108.422 210.163L109.274 211.581C109.274 211.581 90.4041 257.124 89.5528 269.041C88.8907 269.231 87.3112 269.694 86.2897 270.035Z" fill="#006F94"/>
<path d="M110.125 326.218C115.914 314.981 116.226 256.462 115.658 228.606C117.077 235.417 119.631 316.144 114.24 327.636C109.927 336.83 104.403 349.154 102.18 354.167H97.9238C99.5791 349.533 104.337 337.454 110.125 326.218Z" fill="#006F94"/>
<path d="M260.387 187.398C260.368 187.233 260.362 187.112 260.372 187.037C260.372 187.136 260.377 187.257 260.387 187.398C260.933 191.912 272.28 229.082 272.006 242.085C271.722 255.563 268.033 262.657 270.02 267.907C264.912 260.955 270.02 248.469 270.02 242.085C270.02 235.849 260.816 193.338 260.387 187.398Z" fill="#006F94"/>
<path d="M123.035 99.7825C131.548 84.0058 153.16 79.0212 162.902 78.501C150.701 82.0479 136.513 86.4326 125.589 101.343C114.664 116.254 106.435 153.412 105.868 159.654C105.414 164.649 108.989 169.775 110.834 171.714C110.644 172.471 109.159 171.998 104.733 164.053C99.1997 154.121 112.394 119.503 123.035 99.7825Z" fill="#006F94"/>
<path d="M168.578 84.1765C173.828 88.8584 173.459 101.145 168.578 107.161C170.281 101.344 170.564 89.7097 168.578 84.1765Z" fill="#006F94"/>
<path d="M166.734 112.268C168.295 124.895 131.265 152.845 118.922 165.33C127.434 143.481 154.107 133.124 166.734 112.268Z" fill="#006F94"/>
<path d="M172.977 114.538C192.934 116.808 234.92 130.74 243.206 168.309C241.503 143.339 225.613 116.95 172.977 114.538Z" fill="#006F94"/>
<path d="M104.309 198.813C102.748 187.888 112.538 166.749 113.673 166.465C111.45 174.457 107.004 192.116 107.004 198.813C107.004 205.509 111.45 214.939 113.673 218.817C111.072 215.791 105.557 207.552 104.309 198.813Z" fill="#006F94"/>
<path d="M204.898 75.6636C195.591 73.7341 179.644 76.4676 172.834 78.0756C181.961 76.5149 201.153 74.33 204.898 78.0756C232.422 90.5607 243.914 110.14 258.811 137.096C252.427 100.066 216.532 78.0756 204.898 75.6636Z" fill="#006F94"/>
<path d="M253.278 263.367C259.407 250.881 264.911 177.957 260.513 150.291C260.513 179.375 253.732 253.662 251.008 262.515C247.602 273.582 235.543 279.966 235.543 302.383C235.543 286.209 245.616 278.973 253.278 263.367Z" fill="#006F94"/>
<path d="M204.757 274.575C218.377 257.691 236.821 244.355 236.821 228.465C239.091 254.286 222.634 262.373 209.155 279.399C202.334 288.015 197.805 292.309 192.981 300.538C189.122 307.121 196.67 317.989 193.975 322.671C191.373 317.847 186.71 306.667 188.867 300.538C191.023 294.409 197.293 283.827 204.757 274.575Z" fill="#006F94"/>
<path d="M187.021 333.312C189.681 328.552 219.89 277.27 227.74 257.691C227.882 257.408 229.584 255.563 229.726 255.705C225.27 268.879 190.575 332.177 189.575 336.575C189.008 339.072 187.211 351.85 187.021 353.884C186.501 353.08 184.326 338.135 187.021 333.312Z" fill="#006F94"/>
<path d="M235.26 313.307C235.26 315.435 232.139 354.026 247.887 354.026C242.496 349.06 235.26 348.493 235.26 313.307Z" fill="#006F94"/>
<path d="M141.261 296.552C140.773 279.268 128.443 251.444 121.759 238.68C132.586 253.517 141.776 271.502 141.261 296.552C141.308 298.223 141.244 299.796 141.054 301.247C141.161 299.655 141.229 298.09 141.261 296.552Z" fill="#006F94"/>
<path d="M131.083 353.785C135.829 349.08 138.178 331.194 138.784 322.104C138.784 331.28 139.554 347.131 131.083 353.785C130.644 354.22 130.185 354.543 129.704 354.735C130.189 354.444 130.648 354.127 131.083 353.785Z" fill="#006F94"/>
<path d="M155.099 317.847C157.596 310.924 156.896 283.844 156.234 271.17C155.855 284.223 154.673 311.832 152.97 317.847C151.268 323.863 151.315 344.378 151.552 353.884C151.693 344.757 152.601 324.771 155.099 317.847Z" fill="#006F94"/>
<path d="M222.433 123.247C219.023 120.069 209.788 116.271 205.323 114.679C211.942 114.679 215.344 115.886 222.433 123.247C222.671 123.468 222.88 123.687 223.058 123.901C222.846 123.678 222.638 123.46 222.433 123.247Z" fill="#006F94"/>
<g filter="url(#filter0_f_73_200)">
<path d="M207.595 200.231C209.524 200.004 218.851 197.866 221.499 195.833C225.471 191.576 242.922 183.49 243.632 187.32C244.341 191.151 240.368 214.844 240.085 216.972C239.801 219.101 232.282 231.869 219.513 230.734C206.744 229.599 204.757 218.391 200.927 212.574C197.096 206.757 205.183 200.515 207.595 200.231Z" fill="#E6FFF3"/>
<path d="M122.185 186.043C125.59 184.454 134.954 187.462 139.21 189.165C140.345 190.583 144.46 195.833 146.304 195.833C148.149 195.833 149.851 195.833 152.121 198.245C154.391 200.657 154.675 206.474 152.121 210.162C149.567 213.851 144.318 226.478 133.11 225.343C121.901 224.208 119.773 204.913 120.057 202.217C120.341 199.522 122.185 189.165 122.185 186.043Z" fill="#E6FFF3"/>
</g>
<path d="M251.151 328.203C254.329 314.583 266.379 296.234 272.007 288.762C263.494 296.849 249.307 323.805 248.881 328.203C248.54 331.722 244.672 345.087 242.78 351.329C244.246 349.296 247.973 341.824 251.151 328.203Z" fill="#00A9AA"/>
<path d="M285.769 353.175C288.086 345.419 294.565 329.878 301.942 329.765C311.164 329.623 290.309 341.966 285.769 353.175Z" fill="#00A9AA"/>
<path d="M259.804 266.629C257.988 263.224 255.454 261.995 254.413 261.806C257.478 264.076 258.055 267.764 257.96 269.325C267.277 270.838 287.243 274.177 292.578 275.426C299.246 276.986 321.805 289.755 323.791 292.451C325.38 294.608 331.925 335.156 334.999 355.161C333.722 335.109 328.047 294.295 325.493 289.755C322.94 285.215 303.928 276.845 292.578 272.872C281.228 268.899 271.438 268.758 259.804 266.629Z" fill="#006F94"/>
<path d="M64.8664 275.284C66.1149 274.943 99.7207 265.873 116.368 261.38C99.9099 266.298 66.5689 276.277 64.8664 276.844C62.7382 277.554 59.0494 276.561 58.0563 276.844C57.0632 277.128 55.6444 282.661 54.5094 283.229C53.3744 283.796 43.0174 295.288 41.3148 297.7C39.9528 299.63 29.8701 336.811 24.999 355.16C29.1607 336.811 37.9949 299.403 40.038 296.565C42.5917 293.018 51.9556 282.236 53.8 281.526C55.6444 280.817 55.3606 276.277 57.6307 275.284C59.9007 274.291 63.3057 275.709 64.8664 275.284Z" fill="#006F94"/>
<path d="M289.032 330.048C293.572 318.244 307.003 305.077 313.151 299.97C307.523 306.733 295.246 322.585 291.16 331.892C287.074 341.199 285.674 350.336 285.485 353.741C284.776 350.762 284.492 341.852 289.032 330.048Z" fill="#006F94"/>
<path d="M92.3763 352.423C91.7352 340.296 75.4445 303.27 67.1367 285.782C78.9649 298.306 91.8849 334.442 92.3763 352.423C92.3958 352.791 92.4008 353.137 92.3908 353.457C92.3908 353.12 92.3859 352.775 92.3763 352.423Z" fill="#006F94"/>
<path d="M175.956 330.758C181.404 330.644 189.008 324.751 192.13 321.819C188.157 325.603 179.361 333.226 175.956 333.453C172.551 333.68 160.255 322.103 154.532 316.286C159.403 321.157 170.508 330.871 175.956 330.758Z" fill="#006F94"/>
<path d="M70.2568 337.852C75.9792 342.865 86.601 353.061 83.3095 353.742C80.018 354.423 73.2362 343.432 70.2568 337.852Z" fill="#00A9AA"/>
<path d="M90.5461 354.025C83.3104 338.23 66.881 305.135 59.0494 299.119C51.2178 293.104 76.784 333.217 90.5461 354.025Z" fill="#00A9AA"/>
<path d="M90.4038 298.977C92.4469 313.392 93.2414 341.588 93.3832 353.884C94.3764 353.884 93.3832 303.092 93.3832 298.977C93.3832 294.863 87.85 280.959 90.4038 298.977Z" fill="#00A9AA"/>
<path d="M170.847 184.908C170.053 178.893 167.395 176.443 166.165 175.97C166.023 175.828 164.605 175.176 160.064 173.7C165.03 175.403 167.016 180.652 170.847 184.908Z" fill="#B9FFD4"/>
<path d="M227.74 176.963C220.135 171.515 203.952 170.39 194.399 169.87C190.852 170.579 187.305 176.963 190.568 175.97C199.081 172.707 213.694 176.112 227.74 176.963Z" fill="#006F94"/>
<path d="M128.001 174.248C135.988 169.378 152.21 169.452 161.775 169.64C165.26 170.609 168.325 177.239 165.144 176.007C156.896 172.123 142.071 174.438 128.001 174.248Z" fill="#006F94"/>
<path d="M189.292 187.32C188.234 188.681 187.047 190.377 186.454 192.712C185.554 196.258 186.282 203.063 189.292 208.602C194.339 217.888 204.047 221.796 212.843 221.938C221.64 222.08 226.747 218.391 232.706 212.432C238.665 206.474 239.091 198.245 238.097 193.137C237.104 188.03 232.317 177.673 214.83 177.673C197.521 177.673 191.278 184.766 189.292 187.32Z" stroke="black" stroke-width="1.6476"/>
<path d="M185.604 191.718C186.285 192.286 186.266 192.806 186.172 192.995L187.023 191.293C186.739 190.962 185.746 190.101 184.044 189.306C181.915 188.313 173.687 188.171 170.991 188.597C168.834 188.938 168.201 189.874 168.153 190.3L168.579 192.144C168.674 191.766 169.033 190.952 169.714 190.725C170.565 190.441 176.524 190.3 177.517 190.3C178.51 190.3 184.753 191.009 185.604 191.718Z" fill="black"/>
<path d="M165.021 183.632C166.079 184.992 167.266 186.689 167.858 189.023C168.758 192.57 168.031 199.375 165.021 204.913C159.973 214.2 151.98 217.54 143.183 217.54C137.366 217.54 130.13 214.277 124.171 208.318C118.212 202.359 117.503 194.13 118.496 189.023C119.489 183.915 121.995 173.984 139.483 173.984C156.792 173.984 163.034 181.078 165.021 183.632Z" stroke="black" stroke-width="1.6476"/>
<path d="M198.231 189.732C195.507 190.526 193.312 194.792 192.556 196.826C193.833 196.826 204.19 198.572 209.865 196.826C211.709 196.258 215.398 193.421 216.391 190.299C214.121 189.448 201.636 188.739 198.231 189.732Z" fill="white"/>
<path d="M213.412 197.251C211.142 198.159 208.966 197.535 208.162 197.11C208.54 196.968 209.614 196.951 210.432 196.542C211.567 195.975 214.405 193.279 214.83 192.995C215.18 192.762 215.918 191.198 216.249 190.441C217.053 190.536 218.916 190.867 219.938 191.435C219.087 191.435 216.249 196.116 213.412 197.251Z" fill="#83E2C3"/>
<path d="M204.931 197.695C204.468 197.756 204.066 197.797 203.763 197.819C204.097 197.786 204.497 197.744 204.931 197.695C206.418 197.499 208.534 197.093 210.005 196.4C211.731 195.588 213.888 193.808 215.035 192.764C215.164 192.644 215.285 192.532 215.397 192.428C215.292 192.528 215.17 192.641 215.035 192.764C214.195 193.541 213.022 194.608 212.035 195.458C212.115 195.488 212.332 195.606 212.559 195.833C212.446 195.719 212.039 195.642 211.85 195.617C211.702 195.743 211.559 195.864 211.424 195.976C211.566 195.976 211.906 196.06 212.133 196.4C211.906 196.173 211.377 196.178 211.14 196.209C210.984 196.336 210.84 196.448 210.715 196.543C210.951 196.637 211.566 196.826 211.424 197.252C211.424 196.968 210.667 196.92 210.289 196.826C209.728 197.106 206.951 197.47 204.931 197.695Z" fill="#006F94"/>
<path d="M208.02 192.712C208.02 195.376 205.86 197.535 203.196 197.535C200.532 197.535 198.372 195.376 198.372 192.712C198.372 190.048 200.532 188.455 203.196 188.455C205.86 188.455 208.02 190.048 208.02 192.712Z" fill="#00A9AA"/>
<path d="M199.791 189.874C195.364 190.669 193.832 195.123 192.413 197.11C192.697 194.603 195.761 189.363 198.939 188.455C202.912 187.32 217.242 188.455 222.917 192.144C220.653 191.578 218.244 191.112 216.248 190.725C216.579 190.965 217.781 191.577 218.802 192.144C216.986 191.917 215.775 190.956 215.397 190.504C214.216 190.29 213.082 190.109 211.992 189.961C212.654 190.452 214.688 191.469 215.681 191.718C214.546 191.718 211.661 190.581 210.715 189.799C209.985 189.714 209.276 189.644 208.587 189.589C209.155 189.873 209.722 190.583 211.708 191.435C210.46 191.435 207.972 190.134 206.885 189.484C206.352 189.461 205.832 189.447 205.324 189.444C205.891 189.824 207.339 190.754 208.587 191.435C207.225 191.435 204.898 190.119 203.905 189.461C202.428 189.508 201.061 189.646 199.791 189.874Z" fill="#006F94"/>
<g filter="url(#filter1_f_73_200)">
<circle cx="201.777" cy="191.293" r="1.41877" fill="#B9FFD4"/>
</g>
<g filter="url(#filter2_d_73_200)">
<circle cx="201.778" cy="191.293" r="1.13501" fill="white"/>
</g>
<path d="M157.229 190.3C159.84 191.435 161.438 194.178 161.911 195.408C161.485 195.124 149.71 196.401 143.893 195.408C141.04 194.921 140.771 190.584 140.771 188.598C142.332 188.172 153.966 188.881 157.229 190.3Z" fill="white"/>
<path d="M144.744 195.266C145.879 195.834 147.96 195.881 148.858 195.834C147.392 195.928 143.759 196.618 141.906 195.692C139.92 194.699 140.204 190.821 140.629 188.598C140.629 188.598 141.481 191.719 141.906 192.571C142.332 193.422 143.609 194.699 144.744 195.266Z" fill="#83E2C3"/>
<path d="M144.602 194.982C145.737 195.55 148.007 195.786 149 195.834C147.44 196.062 146.176 195.914 145.169 195.562C144.838 195.653 144.12 195.89 143.893 196.117C144.12 195.777 144.605 195.516 144.82 195.428C144.644 195.354 144.477 195.274 144.318 195.189C144.034 195.262 143.439 195.436 143.325 195.55C143.511 195.261 143.93 195.113 144.116 195.074C143.987 194.998 143.864 194.918 143.748 194.836C143.545 194.854 143.121 194.908 143.041 194.982C143.155 194.869 143.481 194.78 143.629 194.75C142.643 194.013 142.104 193.087 141.906 192.428C142.332 193.043 143.467 194.415 144.602 194.982Z" fill="#006F94"/>
<path d="M156.945 192.286C156.945 194.715 154.976 196.684 152.547 196.684C150.118 196.684 148.148 194.715 148.148 192.286C148.148 189.857 150.118 188.456 152.547 188.456C154.976 188.456 156.945 189.857 156.945 192.286Z" fill="#00A9AA"/>
<path d="M156.52 189.165C160.492 191.095 161.769 194.32 161.911 195.692C160.776 192.854 157.796 191.152 155.952 190.442C154.469 189.872 152.781 189.396 150.703 189.091C150.088 189.589 148.149 190.726 147.014 190.726C148.858 189.875 149.284 189.449 149.709 188.963C149.255 188.911 148.783 188.867 148.291 188.832C147.581 189.51 145.198 190.584 143.041 190.584C144.318 190.271 146.929 189.47 147.156 188.767C146.439 188.736 145.684 188.723 144.886 188.727C144.082 189.346 141.254 190.868 139.778 190.868C141.622 190.017 142.332 189.578 143.467 188.727C142.733 188.743 141.756 188.775 141.055 188.824C140.582 189.458 138.955 190.442 136.799 190.442C138.643 189.875 139.069 189.733 140.204 188.891C138.815 189.012 137.326 189.196 135.38 189.449C139.778 187.037 152.547 187.236 156.52 189.165Z" fill="#006F94"/>
<g filter="url(#filter3_f_73_200)">
<circle cx="151.838" cy="191.01" r="1.41877" fill="#B9FFD4"/>
</g>
<circle cx="151.837" cy="191.01" r="1.13501" fill="white"/>
<rect y="355" width="360" height="75" fill="#00A9AA"/>
<path d="M350.455 20.9432L333 20.9432L333 18.8295L348.239 18.8295L348.239 18.7273L345.409 14.4659L347.557 14.4659L350.455 18.8295L350.455 20.9432ZM350.693 36.3199C350.687 37.0358 350.551 37.7517 350.284 38.4676C350.017 39.1835 349.574 39.8369 348.955 40.4278C348.341 41.0188 347.503 41.4932 346.44 41.8511C345.378 42.2091 344.045 42.3881 342.443 42.3881C340.892 42.3881 339.514 42.2403 338.31 41.9449C337.111 41.6551 336.099 41.2347 335.276 40.6835C334.452 40.1381 333.827 39.4733 333.401 38.6892C332.974 37.9108 332.761 37.0301 332.761 36.0472C332.761 35.0699 332.955 34.1977 333.341 33.4307C333.733 32.6693 334.276 32.0443 334.969 31.5557C335.668 31.0727 336.477 30.7631 337.398 30.6267L337.398 32.7062C336.597 32.8937 335.935 33.2659 335.412 33.8227C334.895 34.3852 334.636 35.1267 334.636 36.0472C334.636 37.3937 335.224 38.4562 336.401 39.2347C337.577 40.0187 339.239 40.4108 341.386 40.4108L341.386 40.2744C340.909 39.9562 340.497 39.5784 340.151 39.1409C339.804 38.7034 339.537 38.2176 339.349 37.6835C339.162 37.1494 339.068 36.5812 339.068 35.979C339.068 34.979 339.315 34.0614 339.81 33.2261C340.31 32.3966 340.994 31.7318 341.864 31.2318C342.739 30.7375 343.739 30.4903 344.864 30.4903C345.932 30.4903 346.909 30.729 347.795 31.2062C348.687 31.6892 349.398 32.3653 349.926 33.2347C350.455 34.1097 350.71 35.1381 350.693 36.3199ZM348.818 36.3199C348.818 35.604 348.639 34.9591 348.281 34.3852C347.929 33.817 347.452 33.3653 346.849 33.0301C346.253 32.7006 345.591 32.5358 344.864 32.5358C344.136 32.5358 343.474 32.6949 342.878 33.0131C342.287 33.3369 341.815 33.7773 341.463 34.3341C341.116 34.8966 340.943 35.5358 340.943 36.2517C340.943 36.7915 341.048 37.2943 341.259 37.7602C341.474 38.2261 341.767 38.6324 342.136 38.979C342.511 39.3312 342.935 39.6068 343.406 39.8057C343.884 40.0045 344.381 40.104 344.898 40.104C345.58 40.104 346.219 39.9392 346.815 39.6097C347.412 39.2858 347.895 38.8369 348.264 38.2631C348.634 37.6949 348.818 37.0472 348.818 36.3199ZM350.693 56.0964C350.687 56.8124 350.551 57.5283 350.284 58.2442C350.017 58.9601 349.574 59.6135 348.955 60.2044C348.341 60.7953 347.503 61.2697 346.44 61.6277C345.378 61.9857 344.045 62.1646 342.443 62.1646C340.892 62.1646 339.514 62.0169 338.31 61.7214C337.111 61.4317 336.099 61.0112 335.276 60.4601C334.452 59.9146 333.827 59.2499 333.401 58.4658C332.974 57.6874 332.761 56.8067 332.761 55.8237C332.761 54.8464 332.955 53.9743 333.341 53.2072C333.733 52.4459 334.276 51.8209 334.969 51.3322C335.668 50.8493 336.477 50.5396 337.398 50.4033L337.398 52.4828C336.597 52.6703 335.935 53.0425 335.412 53.5993C334.895 54.1618 334.636 54.9033 334.636 55.8237C334.636 57.1703 335.224 58.2328 336.401 59.0112C337.577 59.7953 339.239 60.1874 341.386 60.1874L341.386 60.051C340.909 59.7328 340.497 59.355 340.151 58.9175C339.804 58.48 339.537 57.9942 339.349 57.4601C339.162 56.926 339.068 56.3578 339.068 55.7555C339.068 54.7555 339.315 53.8379 339.81 53.0027C340.31 52.1732 340.994 51.5084 341.864 51.0084C342.739 50.5141 343.739 50.2669 344.864 50.2669C345.932 50.2669 346.909 50.5055 347.795 50.9828C348.687 51.4658 349.398 52.1419 349.926 53.0112C350.455 53.8862 350.71 54.9146 350.693 56.0964ZM348.818 56.0964C348.818 55.3805 348.639 54.7357 348.281 54.1618C347.929 53.5936 347.452 53.1419 346.849 52.8067C346.253 52.4771 345.591 52.3124 344.864 52.3124C344.136 52.3124 343.474 52.4714 342.878 52.7896C342.287 53.1135 341.815 53.5538 341.463 54.1107C341.116 54.6732 340.943 55.3124 340.943 56.0283C340.943 56.568 341.048 57.0709 341.259 57.5368C341.474 58.0027 341.767 58.4089 342.136 58.7555C342.511 59.1078 342.935 59.3834 343.406 59.5822C343.884 59.7811 344.381 59.8805 344.898 59.8805C345.58 59.8805 346.219 59.7158 346.815 59.3862C347.412 59.0624 347.895 58.6135 348.264 58.0396C348.634 57.4714 348.818 56.8237 348.818 56.0964ZM350.693 75.873C350.687 76.5889 350.551 77.3048 350.284 78.0207C350.017 78.7366 349.574 79.3901 348.955 79.981C348.341 80.5719 347.503 81.0463 346.44 81.4043C345.378 81.7622 344.045 81.9412 342.443 81.9412C340.892 81.9412 339.514 81.7935 338.31 81.498C337.111 81.2082 336.099 80.7878 335.276 80.2366C334.452 79.6912 333.827 79.0264 333.401 78.2423C332.974 77.4639 332.761 76.5832 332.761 75.6003C332.761 74.623 332.955 73.7509 333.341 72.9838C333.733 72.2224 334.276 71.5974 334.969 71.1088C335.668 70.6259 336.477 70.3162 337.398 70.1798L337.398 72.2594C336.597 72.4469 335.935 72.819 335.412 73.3759C334.895 73.9384 334.636 74.6798 334.636 75.6003C334.636 76.9469 335.224 78.0094 336.401 78.7878C337.577 79.5719 339.239 79.9639 341.386 79.9639L341.386 79.8276C340.909 79.5094 340.497 79.1315 340.151 78.694C339.804 78.2565 339.537 77.7707 339.349 77.2366C339.162 76.7026 339.068 76.1344 339.068 75.5321C339.068 74.5321 339.315 73.6145 339.81 72.7793C340.31 71.9497 340.994 71.2849 341.864 70.7849C342.739 70.2906 343.739 70.0435 344.864 70.0435C345.932 70.0435 346.909 70.2821 347.795 70.7594C348.687 71.2423 349.398 71.9185 349.926 72.7878C350.455 73.6628 350.71 74.6912 350.693 75.873ZM348.818 75.873C348.818 75.1571 348.639 74.5122 348.281 73.9384C347.929 73.3702 347.452 72.9185 346.849 72.5832C346.253 72.2537 345.591 72.0889 344.864 72.0889C344.136 72.0889 343.474 72.248 342.878 72.5662C342.287 72.8901 341.815 73.3304 341.463 73.8872C341.116 74.4497 340.943 75.0889 340.943 75.8048C340.943 76.3446 341.048 76.8474 341.259 77.3134C341.474 77.7793 341.767 78.1855 342.136 78.5321C342.511 78.8844 342.935 79.1599 343.406 79.3588C343.884 79.5577 344.381 79.6571 344.898 79.6571C345.58 79.6571 346.219 79.4923 346.815 79.1628C347.412 78.8389 347.895 78.3901 348.264 77.8162C348.634 77.248 348.818 76.6003 348.818 75.873ZM332.864 90.9834C332.864 90.5629 333.014 90.2021 333.315 89.901C333.616 89.5999 333.977 89.4493 334.398 89.4493C334.818 89.4493 335.179 89.5999 335.48 89.901C335.781 90.2021 335.932 90.5629 335.932 90.9834C335.932 91.4038 335.781 91.7646 335.48 92.0658C335.179 92.3669 334.818 92.5175 334.398 92.5175C334.119 92.5175 333.864 92.4464 333.631 92.3044C333.398 92.168 333.21 91.9834 333.068 91.7504C332.932 91.5231 332.864 91.2675 332.864 90.9834ZM350.455 104.943L333 104.943L333 102.83L348.239 102.83L348.239 102.727L345.409 98.4659L347.557 98.4659L350.455 102.83L350.455 104.943ZM350.455 120.899L333 120.899L333 118.786L348.239 118.786L348.239 118.684L345.409 114.422L347.557 114.422L350.455 118.786L350.455 120.899ZM332.864 131.188C332.864 130.768 333.014 130.407 333.315 130.106C333.616 129.805 333.977 129.654 334.398 129.654C334.818 129.654 335.179 129.805 335.48 130.106C335.781 130.407 335.932 130.768 335.932 131.188C335.932 131.609 335.781 131.969 335.48 132.27C335.179 132.572 334.818 132.722 334.398 132.722C334.119 132.722 333.864 132.651 333.631 132.509C333.398 132.373 333.21 132.188 333.068 131.955C332.932 131.728 332.864 131.472 332.864 131.188ZM333 141.097L334.534 141.097L340.841 146.859C341.58 147.535 342.222 148.092 342.767 148.529C343.318 148.967 343.835 149.291 344.318 149.501C344.807 149.717 345.318 149.825 345.852 149.825C346.466 149.825 346.997 149.677 347.446 149.382C347.895 149.092 348.241 148.694 348.486 148.188C348.73 147.683 348.852 147.114 348.852 146.484C348.852 145.813 348.713 145.228 348.435 144.728C348.162 144.234 347.778 143.85 347.284 143.578C346.79 143.311 346.21 143.177 345.545 143.177L345.545 141.166C346.568 141.166 347.466 141.401 348.239 141.873C349.011 142.345 349.614 142.987 350.045 143.799C350.477 144.617 350.693 145.535 350.693 146.552C350.693 147.575 350.477 148.481 350.045 149.271C349.614 150.061 349.031 150.68 348.298 151.129C347.565 151.578 346.75 151.802 345.852 151.802C345.21 151.802 344.582 151.686 343.969 151.453C343.361 151.225 342.682 150.828 341.932 150.259C341.187 149.697 340.278 148.916 339.205 147.916L335.011 143.995L334.875 143.995L334.875 152.109L333 152.109L333 141.097ZM332.761 166.122C332.761 164.838 333.111 163.744 333.81 162.841C334.514 161.937 335.534 161.247 336.869 160.77C338.21 160.292 339.83 160.054 341.727 160.054C343.614 160.054 345.224 160.292 346.56 160.77C347.901 161.253 348.923 161.946 349.628 162.849C350.338 163.758 350.693 164.849 350.693 166.122C350.693 167.395 350.338 168.483 349.628 169.386C348.923 170.295 347.901 170.988 346.56 171.466C345.224 171.949 343.614 172.19 341.727 172.19C339.83 172.19 338.21 171.951 336.869 171.474C335.534 170.997 334.514 170.307 333.81 169.403C333.111 168.5 332.761 167.406 332.761 166.122ZM334.636 166.122C334.636 167.395 335.25 168.383 336.477 169.088C337.705 169.792 339.455 170.145 341.727 170.145C343.239 170.145 344.526 169.983 345.588 169.659C346.651 169.341 347.46 168.88 348.017 168.278C348.574 167.682 348.852 166.963 348.852 166.122C348.852 164.861 348.23 163.875 346.986 163.164C345.747 162.454 343.994 162.099 341.727 162.099C340.216 162.099 338.932 162.258 337.875 162.576C336.818 162.895 336.014 163.352 335.463 163.949C334.912 164.551 334.636 165.275 334.636 166.122Z" fill="#006F94"/>
<path d="M68.1136 384.545H70.6364L76.5682 399.034H76.7727L82.7045 384.545H85.2273V402H83.25V388.739H83.0795L77.625 402H75.7159L70.2614 388.739H70.0909V402H68.1136V384.545ZM97.8447 402.307C97.0152 402.307 96.2624 402.151 95.5862 401.838C94.9101 401.52 94.3732 401.062 93.9754 400.466C93.5777 399.864 93.3788 399.136 93.3788 398.284C93.3788 397.534 93.5266 396.926 93.822 396.46C94.1175 395.989 94.5124 395.619 95.0067 395.352C95.501 395.085 96.0464 394.886 96.643 394.756C97.2453 394.619 97.8504 394.511 98.4584 394.432C99.2538 394.33 99.8987 394.253 100.393 394.202C100.893 394.145 101.257 394.051 101.484 393.92C101.717 393.79 101.833 393.562 101.833 393.239V393.17C101.833 392.33 101.603 391.676 101.143 391.21C100.688 390.744 99.9982 390.511 99.072 390.511C98.1118 390.511 97.3589 390.722 96.8135 391.142C96.268 391.562 95.8845 392.011 95.6629 392.489L93.7538 391.807C94.0947 391.011 94.5493 390.392 95.1175 389.949C95.6913 389.5 96.3163 389.187 96.9925 389.011C97.6743 388.83 98.3447 388.739 99.0038 388.739C99.4243 388.739 99.9072 388.79 100.453 388.892C101.004 388.989 101.535 389.19 102.046 389.497C102.563 389.804 102.992 390.267 103.333 390.886C103.674 391.506 103.845 392.335 103.845 393.375V402H101.833V400.227H101.731C101.595 400.511 101.367 400.815 101.049 401.139C100.731 401.463 100.308 401.739 99.7794 401.966C99.251 402.193 98.6061 402.307 97.8447 402.307ZM98.1516 400.5C98.947 400.5 99.6175 400.344 100.163 400.031C100.714 399.719 101.129 399.315 101.407 398.821C101.691 398.327 101.833 397.807 101.833 397.261V395.42C101.748 395.523 101.561 395.616 101.271 395.702C100.987 395.781 100.657 395.852 100.282 395.915C99.9129 395.972 99.5521 396.023 99.1999 396.068C98.8533 396.108 98.572 396.142 98.3561 396.17C97.8334 396.239 97.3447 396.349 96.8902 396.503C96.4413 396.651 96.0777 396.875 95.7993 397.176C95.5266 397.472 95.3902 397.875 95.3902 398.386C95.3902 399.085 95.6487 399.614 96.1658 399.972C96.6885 400.324 97.3504 400.5 98.1516 400.5ZM117.259 402.273C116.168 402.273 115.205 401.997 114.37 401.446C113.535 400.889 112.881 400.105 112.41 399.094C111.938 398.077 111.702 396.875 111.702 395.489C111.702 394.114 111.938 392.92 112.41 391.909C112.881 390.898 113.537 390.116 114.378 389.565C115.219 389.014 116.191 388.739 117.293 388.739C118.145 388.739 118.819 388.881 119.313 389.165C119.813 389.443 120.194 389.761 120.455 390.119C120.722 390.472 120.93 390.761 121.077 390.989H121.248V384.545H123.259V402H121.316V399.989H121.077C120.93 400.227 120.719 400.528 120.447 400.892C120.174 401.25 119.785 401.571 119.279 401.855C118.773 402.134 118.1 402.273 117.259 402.273ZM117.532 400.466C118.339 400.466 119.02 400.256 119.577 399.835C120.134 399.409 120.557 398.821 120.847 398.071C121.137 397.315 121.282 396.443 121.282 395.455C121.282 394.477 121.14 393.622 120.856 392.889C120.572 392.151 120.151 391.577 119.594 391.168C119.037 390.753 118.35 390.545 117.532 390.545C116.68 390.545 115.969 390.764 115.401 391.202C114.839 391.634 114.415 392.222 114.131 392.966C113.853 393.705 113.714 394.534 113.714 395.455C113.714 396.386 113.856 397.233 114.14 397.994C114.43 398.75 114.856 399.352 115.418 399.801C115.986 400.244 116.691 400.466 117.532 400.466ZM137.511 402.273C136.249 402.273 135.161 401.994 134.247 401.438C133.338 400.875 132.636 400.091 132.141 399.085C131.653 398.074 131.409 396.898 131.409 395.557C131.409 394.216 131.653 393.034 132.141 392.011C132.636 390.983 133.323 390.182 134.204 389.608C135.09 389.028 136.124 388.739 137.306 388.739C137.988 388.739 138.661 388.852 139.326 389.08C139.991 389.307 140.596 389.676 141.141 390.188C141.687 390.693 142.122 391.364 142.445 392.199C142.769 393.034 142.931 394.062 142.931 395.284V396.136H132.84V394.398H140.886C140.886 393.659 140.738 393 140.443 392.42C140.153 391.841 139.738 391.384 139.198 391.048C138.664 390.713 138.034 390.545 137.306 390.545C136.505 390.545 135.812 390.744 135.227 391.142C134.647 391.534 134.201 392.045 133.889 392.676C133.576 393.307 133.42 393.983 133.42 394.705V395.864C133.42 396.852 133.59 397.69 133.931 398.378C134.278 399.06 134.758 399.58 135.372 399.938C135.985 400.29 136.698 400.466 137.511 400.466C138.039 400.466 138.516 400.392 138.943 400.244C139.374 400.091 139.747 399.864 140.059 399.562C140.372 399.256 140.613 398.875 140.784 398.42L142.727 398.966C142.522 399.625 142.178 400.205 141.695 400.705C141.213 401.199 140.616 401.585 139.906 401.864C139.195 402.136 138.397 402.273 137.511 402.273ZM162.614 402V384.545H168.716C169.932 384.545 170.935 384.756 171.724 385.176C172.514 385.591 173.102 386.151 173.489 386.855C173.875 387.554 174.068 388.33 174.068 389.182C174.068 389.932 173.935 390.551 173.668 391.04C173.406 391.528 173.06 391.915 172.628 392.199C172.202 392.483 171.739 392.693 171.239 392.83V393C171.773 393.034 172.31 393.222 172.849 393.562C173.389 393.903 173.841 394.392 174.205 395.028C174.568 395.665 174.75 396.443 174.75 397.364C174.75 398.239 174.551 399.026 174.153 399.724C173.756 400.423 173.128 400.977 172.27 401.386C171.412 401.795 170.295 402 168.92 402H162.614ZM164.727 400.125H168.92C170.301 400.125 171.281 399.858 171.861 399.324C172.446 398.784 172.739 398.131 172.739 397.364C172.739 396.773 172.588 396.227 172.287 395.727C171.986 395.222 171.557 394.818 171 394.517C170.443 394.21 169.784 394.057 169.023 394.057H164.727V400.125ZM164.727 392.216H168.648C169.284 392.216 169.858 392.091 170.369 391.841C170.886 391.591 171.295 391.239 171.597 390.784C171.903 390.33 172.057 389.795 172.057 389.182C172.057 388.415 171.79 387.764 171.256 387.23C170.722 386.69 169.875 386.42 168.716 386.42H164.727V392.216ZM184.046 406.909C183.705 406.909 183.401 406.881 183.134 406.824C182.867 406.773 182.682 406.722 182.58 406.67L183.091 404.898C183.58 405.023 184.012 405.068 184.387 405.034C184.762 405 185.094 404.832 185.384 404.531C185.679 404.236 185.949 403.756 186.193 403.091L186.568 402.068L181.728 388.909H183.909L187.523 399.341H187.659L191.273 388.909H193.455L187.898 403.909C187.648 404.585 187.338 405.145 186.969 405.588C186.6 406.037 186.171 406.369 185.682 406.585C185.199 406.801 184.654 406.909 184.046 406.909ZM219.414 384.545H221.528V397.023C221.528 398.136 221.323 399.082 220.914 399.861C220.505 400.639 219.928 401.23 219.184 401.634C218.44 402.037 217.562 402.239 216.551 402.239C215.596 402.239 214.747 402.065 214.002 401.719C213.258 401.366 212.673 400.866 212.247 400.219C211.82 399.571 211.607 398.801 211.607 397.909H213.687C213.687 398.403 213.809 398.835 214.053 399.205C214.303 399.568 214.644 399.852 215.076 400.057C215.508 400.261 215.999 400.364 216.551 400.364C217.159 400.364 217.676 400.236 218.102 399.98C218.528 399.724 218.852 399.349 219.073 398.855C219.301 398.355 219.414 397.744 219.414 397.023V384.545ZM231.757 395.898C231.336 395.898 230.976 395.747 230.674 395.446C230.373 395.145 230.223 394.784 230.223 394.364C230.223 393.943 230.373 393.582 230.674 393.281C230.976 392.98 231.336 392.83 231.757 392.83C232.177 392.83 232.538 392.98 232.839 393.281C233.14 393.582 233.291 393.943 233.291 394.364C233.291 394.642 233.22 394.898 233.078 395.131C232.941 395.364 232.757 395.551 232.524 395.693C232.297 395.83 232.041 395.898 231.757 395.898ZM241.973 384.545H244.496L250.428 399.034H250.632L256.564 384.545H259.087V402H257.109V388.739H256.939L251.484 402H249.575L244.121 388.739H243.95V402H241.973V384.545ZM269.318 395.898C268.897 395.898 268.537 395.747 268.235 395.446C267.934 395.145 267.784 394.784 267.784 394.364C267.784 393.943 267.934 393.582 268.235 393.281C268.537 392.98 268.897 392.83 269.318 392.83C269.738 392.83 270.099 392.98 270.4 393.281C270.701 393.582 270.852 393.943 270.852 394.364C270.852 394.642 270.781 394.898 270.639 395.131C270.502 395.364 270.318 395.551 270.085 395.693C269.858 395.83 269.602 395.898 269.318 395.898ZM279.534 402V384.545H281.648V393.205H281.852L289.693 384.545H292.454L285.125 392.42L292.454 402H289.898L283.829 393.886L281.648 396.341V402H279.534Z" fill="white"/>
<circle cx="58" cy="68" r="25" fill="#00A9AA"/>
<circle cx="9" cy="265" r="16" fill="#006F94"/>
<circle cx="33" cy="234" r="8" fill="#B9FFD4"/>
</g>
<defs>
<filter id="filter0_f_73_200" x="103.557" y="169.118" width="156.636" height="78.1634" filterUnits="userSpaceOnUse" color-interpolation-filters="sRGB">
<feFlood flood-opacity="0" result="BackgroundImageFix"/>
<feBlend mode="normal" in="SourceGraphic" in2="BackgroundImageFix" result="shape"/>
<feGaussianBlur stdDeviation="8.23799" result="effect1_foregroundBlur_73_200"/>
</filter>
<filter id="filter1_f_73_200" x="200.029" y="189.544" width="3.49693" height="3.49669" filterUnits="userSpaceOnUse" color-interpolation-filters="sRGB">
<feFlood flood-opacity="0" result="BackgroundImageFix"/>
<feBlend mode="normal" in="SourceGraphic" in2="BackgroundImageFix" result="shape"/>
<feGaussianBlur stdDeviation="0.16476" result="effect1_foregroundBlur_73_200"/>
</filter>
<filter id="filter2_d_73_200" x="199.325" y="190.158" width="4.90666" height="4.90618" filterUnits="userSpaceOnUse" color-interpolation-filters="sRGB">
<feFlood flood-opacity="0" result="BackgroundImageFix"/>
<feColorMatrix in="SourceAlpha" type="matrix" values="0 0 0 0 0 0 0 0 0 0 0 0 0 0 0 0 0 0 127 0" result="hardAlpha"/>
<feOffset dy="1.31808"/>
<feGaussianBlur stdDeviation="0.659039"/>
<feComposite in2="hardAlpha" operator="out"/>
<feColorMatrix type="matrix" values="0 0 0 0 0 0 0 0 0 0 0 0 0 0 0 0 0 0 0.25 0"/>
<feBlend mode="normal" in2="BackgroundImageFix" result="effect1_dropShadow_73_200"/>
<feBlend mode="normal" in="SourceGraphic" in2="effect1_dropShadow_73_200" result="shape"/>
</filter>
<filter id="filter3_f_73_200" x="150.089" y="189.261" width="3.49693" height="3.49669" filterUnits="userSpaceOnUse" color-interpolation-filters="sRGB">
<feFlood flood-opacity="0" result="BackgroundImageFix"/>
<feBlend mode="normal" in="SourceGraphic" in2="BackgroundImageFix" result="shape"/>
<feGaussianBlur stdDeviation="0.16476" result="effect1_foregroundBlur_73_200"/>
</filter>
<clipPath id="clip0_73_200">
<rect width="360" height="430" fill="white"/>
</clipPath>
</defs>
</svg>
